<svg id="Capa_1" enable-background="new 0 0 512 512" height="512" viewBox="0 0 512 512" width="512" xmlns="http://www.w3.org/2000/svg"><g><path d="m37 344.506c4.142 0 7.5-3.357 7.5-7.5v-84.506c0-17.921 14.58-32.5 32.5-32.5h299.958c4.142 0 7.5-3.357 7.5-7.5s-3.358-7.5-7.5-7.5h-299.958c-3.719 0-7.335.443-10.81 1.256v-154.381c0-20.333 16.582-36.875 36.964-36.875h49.346c4.142 0 7.5-3.357 7.5-7.5s-3.358-7.5-7.5-7.5h-49.346c-28.653 0-51.964 23.271-51.964 51.875v160.781c-13.041 8.476-21.69 23.165-21.69 39.844v84.506c0 4.142 3.358 7.5 7.5 7.5z"/><path d="m460.81 212.656v-45.354c0-10.88-4.24-21.111-11.938-28.811l-126.505-126.52c-7.719-7.72-17.986-11.971-28.91-11.971h-105.957c-4.142 0-7.5 3.357-7.5 7.5s3.358 7.5 7.5 7.5h105.957c2.144 0 4.273.274 6.334.798v107.673c0 20.714 16.85 37.566 37.56 37.566h107.694c.505 2.025.765 4.125.765 6.265v38.954c-3.475-.813-7.091-1.256-10.81-1.256h-20.255c-4.142 0-7.5 3.357-7.5 7.5s3.358 7.5 7.5 7.5h20.255c17.92 0 32.5 14.579 32.5 32.5v146c0 17.921-14.58 32.5-32.5 32.5h-358c-17.92 0-32.5-14.579-32.5-32.5v-26.494c0-4.143-3.358-7.5-7.5-7.5s-7.5 3.357-7.5 7.5v26.494c0 16.679 8.649 31.368 21.69 39.844v21.781c0 28.604 23.311 51.875 51.964 51.875h182.251c4.142 0 7.5-3.357 7.5-7.5s-3.358-7.5-7.5-7.5h-182.251c-20.382 0-36.964-16.542-36.964-36.875v-15.381c3.475.813 7.091 1.256 10.81 1.256h358c3.719 0 7.335-.443 10.81-1.256v15.381c0 20.333-16.582 36.875-36.964 36.875h-88.441c-4.142 0-7.5 3.357-7.5 7.5s3.358 7.5 7.5 7.5h88.441c28.653 0 51.964-23.271 51.964-51.875v-21.781c13.041-8.477 21.69-23.165 21.69-39.844v-146c0-16.679-8.649-31.368-21.69-39.844zm-146.018-89.185v-97.862l120.413 120.428h-97.853c-12.44 0-22.56-10.123-22.56-22.566z"/><path d="m278.167 268.504v113.992c0 4.143 3.358 7.5 7.5 7.5s7.5-3.357 7.5-7.5v-113.992c0-4.143-3.358-7.5-7.5-7.5s-7.5 3.357-7.5 7.5z"/><path d="m371.531 276.421c4.142 0 7.5-3.357 7.5-7.5s-3.358-7.5-7.5-7.5h-45.863c-4.142 0-7.5 3.357-7.5 7.5v113.158c0 4.143 3.358 7.5 7.5 7.5s7.5-3.357 7.5-7.5v-50.15h34.72c4.142 0 7.5-3.357 7.5-7.5s-3.358-7.5-7.5-7.5h-34.72v-40.508z"/><path d="m197.465 276.004c9.92 0 19.488 2.921 27.668 8.448 3.433 2.318 8.095 1.416 10.414-2.017 2.319-3.432 1.416-8.094-2.016-10.413-10.67-7.208-23.142-11.019-36.066-11.019-35.563 0-64.496 28.933-64.496 64.496s28.933 64.496 64.496 64.496c17.297 0 31.9-6.732 42.23-19.469 9.332-11.506 14.472-27.497 14.472-45.027 0-4.143-3.358-7.5-7.5-7.5h-34.101c-4.142 0-7.5 3.357-7.5 7.5s3.358 7.5 7.5 7.5h26.207c-2.199 20.785-13.855 41.996-41.308 41.996-27.292 0-49.496-22.204-49.496-49.496s22.204-49.495 49.496-49.495z"/></g></svg>